<?xml version="1.0" encoding="UTF-8" standalone="no"?>
<!-- Created with Inkscape (http://www.inkscape.org/) -->

<svg
   xmlns:dc="http://purl.org/dc/elements/1.1/"
   xmlns:cc="http://creativecommons.org/ns#"
   xmlns:rdf="http://www.w3.org/1999/02/22-rdf-syntax-ns#"
   xmlns:svg="http://www.w3.org/2000/svg"
   xmlns="http://www.w3.org/2000/svg"
   xmlns:sodipodi="http://sodipodi.sourceforge.net/DTD/sodipodi-0.dtd"
   xmlns:inkscape="http://www.inkscape.org/namespaces/inkscape"
   inkscape:version="0.91 r13725"
   version="1.1"
   id="svg4487"
   viewBox="0 0 1417.3228 1062.9921"
   height="300mm"
   width="400mm"
   sodipodi:docname="queeb - 80% taper - corrected.svg">
  <sodipodi:namedview
     inkscape:window-maximized="1"
     inkscape:window-y="24"
     inkscape:window-x="65"
     inkscape:window-height="1056"
     inkscape:window-width="1855"
     showgrid="false"
     inkscape:current-layer="svg4487"
     inkscape:document-units="px"
     inkscape:cy="464.97663"
     inkscape:cx="465.96356"
     inkscape:zoom="0.7"
     inkscape:pageshadow="2"
     inkscape:pageopacity="0.0"
     borderopacity="1.0"
     bordercolor="#666666"
     pagecolor="#ffffff"
     id="base" />
  <defs
     id="defs4489">
    <inkscape:path-effect
       effect="spiro"
       id="path-effect4567"
       is_visible="true" />
    <inkscape:path-effect
       effect="spiro"
       id="path-effect4563"
       is_visible="true" />
    <inkscape:path-effect
       effect="spiro"
       id="path-effect4559"
       is_visible="true" />
    <inkscape:path-effect
       effect="spiro"
       id="path-effect4555"
       is_visible="true" />
    <inkscape:path-effect
       effect="spiro"
       id="path-effect4551"
       is_visible="true" />
    <inkscape:path-effect
       effect="spiro"
       id="path-effect4547"
       is_visible="true" />
    <inkscape:path-effect
       effect="spiro"
       id="path-effect4543"
       is_visible="true" />
    <inkscape:path-effect
       effect="spiro"
       id="path-effect4539"
       is_visible="true" />
    <inkscape:path-effect
       effect="spiro"
       id="path-effect4535"
       is_visible="true" />
    <inkscape:path-effect
       effect="spiro"
       id="path-effect4529"
       is_visible="true" />
    <inkscape:path-effect
       effect="spiro"
       id="path-effect4475"
       is_visible="true" />
    <inkscape:path-effect
       effect="spiro"
       id="path-effect4471"
       is_visible="true" />
    <inkscape:path-effect
       effect="spiro"
       id="path-effect4415"
       is_visible="true" />
    <inkscape:path-effect
       is_visible="true"
       id="path-effect6090"
       effect="spiro" />
    <inkscape:path-effect
       effect="spiro"
       id="path-effect7420-9"
       is_visible="true" />
    <inkscape:path-effect
       effect="spiro"
       id="path-effect7420"
       is_visible="true" />
    <inkscape:path-effect
       effect="spiro"
       id="path-effect7316-6"
       is_visible="true" />
    <inkscape:path-effect
       effect="spiro"
       id="path-effect7420-9-3"
       is_visible="true" />
    <inkscape:path-effect
       effect="spiro"
       id="path-effect7420-6"
       is_visible="true" />
    <inkscape:path-effect
       is_visible="true"
       id="path-effect6090-5"
       effect="spiro" />
    <inkscape:path-effect
       is_visible="true"
       id="path-effect6090-5-1"
       effect="spiro" />
    <inkscape:path-effect
       is_visible="true"
       id="path-effect6090-2"
       effect="spiro" />
    <inkscape:path-effect
       effect="spiro"
       id="path-effect7420-9-3-7"
       is_visible="true" />
    <inkscape:path-effect
       effect="spiro"
       id="path-effect7420-6-0"
       is_visible="true" />
    <inkscape:path-effect
       effect="spiro"
       id="path-effect4415-2"
       is_visible="true" />
    <inkscape:path-effect
       effect="spiro"
       id="path-effect4415-2-0"
       is_visible="true" />
  </defs>
  <metadata
     id="metadata4492">
    <rdf:RDF>
      <cc:Work
         rdf:about="">
        <dc:format>image/svg+xml</dc:format>
        <dc:type
           rdf:resource="http://purl.org/dc/dcmitype/StillImage" />
        <dc:title></dc:title>
      </cc:Work>
    </rdf:RDF>
  </metadata>
  <g
     transform="translate(0,10.629921)"
     id="layer1"
     inkscape:groupmode="layer"
     inkscape:label="Layer 1" />
  <g
     id="g5088"
     inkscape:groupmode="layer"
     inkscape:label="newlayer" />
  <g
     inkscape:label="newlayer"
     inkscape:groupmode="layer"
     id="g5475" />
  <g
     id="g5632"
     inkscape:groupmode="layer"
     inkscape:label="newlayer" />
  <g
     inkscape:label="newlayer"
     inkscape:groupmode="layer"
     id="g5758" />
  <g
     id="g5874"
     inkscape:groupmode="layer"
     inkscape:label="newlayer" />
  <g
     inkscape:label="newlayer"
     inkscape:groupmode="layer"
     id="g5992" />
  <g
     id="g4225"
     inkscape:groupmode="layer"
     inkscape:label="newlayer" />
  <path
     id="path4227"
     inkscape:label="part"
     style="fill:none;stroke:#000000;stroke-width:0.89867973"
     d="m 502.52873,1000.8611 -5.90979,0.6614 1.19347,10.6647 -14.33884,1.6046 -1.19347,-10.6647 -14.2342,1.593 1.19347,10.6646 -14.33885,1.6047 -1.19347,-10.6647 -14.2342,1.5929 1.19346,10.6647 -14.33884,1.6046 -1.19347,-10.6646 -14.2342,1.5929 1.19346,10.6647 -14.33883,1.6046 -1.19347,-10.6647 -14.23421,1.5929 1.19346,10.6647 -14.33883,1.6047 -1.19347,-10.6647 -14.2342,1.5929 1.19346,10.6647 -14.33884,1.6046 -1.19347,-10.6647 -5.90979,0.6614"
     inkscape:connector-curvature="0" />
  <path
     id="path4229"
     inkscape:label="part"
     style="fill:none;stroke:#000000;stroke-width:1"
     d="m 333.96581,1019.7757 -1.68937,-7.1055 -10.56397,1.1822 -4.20295,-17.67764 10.56398,-1.1822 -4.12939,-17.36826 -10.56397,1.1822 -4.20295,-17.67767 10.56397,-1.1822 -4.12938,-17.36826 -10.56398,1.1822 -4.20296,-17.67766 10.56398,-1.1822 -4.12939,-17.36826 -10.56398,1.1822 -4.20295,-17.67767 10.56398,-1.1822 -4.12938,-17.36825 -10.56398,1.18219 -4.20295,-17.67766 10.56398,-1.1822 -4.12938,-17.36826 -10.56398,1.1822 -4.20295,-17.67767 10.56398,-1.1822 -4.1294,-17.36825 -10.56397,1.18219 -4.20296,-17.67766 10.56397,-1.1822 -4.12938,-17.36826 -10.56398,1.1822 -4.20294,-17.67767 10.56397,-1.1822 -4.12938,-17.36825 -10.56398,1.18219 -4.20295,-17.67766 10.56398,-1.1822 -4.12938,-17.36825 -10.56398,1.1822 -4.20296,-17.67768 10.56398,-1.1822 -1.68936,-7.10547"
     inkscape:connector-curvature="0" />
  <path
     id="path4231"
     inkscape:label="part"
     style="fill:none;stroke:#000000;stroke-width:1.09307361"
     d="m 251.89457,672.41764 8.82633,-0.98774 0,0 21.41524,-2.39655 0,0 21.25896,-2.37905 0,0 21.41523,-2.39655 0,0 21.25897,-2.37905 0,0 21.41523,-2.39654 0,0 21.25895,-2.37906 0,0 21.41524,-2.39654 0,0 21.25897,-2.37906 0,0 21.41525,-2.39654 0,0 21.25895,-2.37906 0,0 21.41524,-2.39654 0,0 8.82633,-0.98774"
     inkscape:connector-curvature="0" />
  <path
     id="path4233"
     inkscape:label="part"
     style="fill:none;stroke:#000000;stroke-width:1"
     d="m 505.33735,644.05527 -0.0564,7.30085 10.56399,-1.1822 -0.14032,18.16372 -10.56399,1.1822 -0.13785,17.84579 10.56399,-1.1822 -0.14032,18.16371 -10.56399,1.1822 -0.13785,17.8458 10.56399,-1.1822 -0.14032,18.16372 -10.56399,1.1822 -0.13786,17.84579 10.56399,-1.18219 -0.14031,18.16371 -10.56399,1.1822 -0.13786,17.8458 10.56399,-1.1822 -0.14031,18.16371 -10.56398,1.1822 -0.13787,17.8458 10.56399,-1.1822 -0.14031,18.16371 -10.56398,1.1822 -0.13786,17.8458 10.56398,-1.1822 -0.14031,18.16372 -10.56398,1.1822 -0.13786,17.84579 10.56398,-1.18219 -0.14031,18.16371 -10.56398,1.1822 -0.13786,17.8458 10.56398,-1.1822 -0.1403,18.16371 -10.56399,1.1822 -0.13786,17.8458 10.56399,-1.1822 -0.14031,18.16371 -10.56399,1.1822 -0.0564,7.30086"
     inkscape:connector-curvature="0" />
  <path
     id="path4251"
     inkscape:label="part"
     style="fill:none;stroke:#000000;stroke-width:1"
     d="m 154.2509,251.78295 1.48053,7.46045 -10.57381,1.05592 3.40396,17.14992 10.57393,-1.05584 3.59254,18.09609 -10.57388,1.05594 3.40395,17.14991 10.57389,-1.05583 3.59258,18.0961 -10.57389,1.05583 3.40396,17.14994 10.57376,-1.05593 3.5926,18.09611 -10.5738,1.05582 3.40395,17.14993 10.57395,-1.05584 3.5926,18.09608 -10.574,1.05595 3.404,17.14991 10.574,-1.05594 3.5925,18.0961 -10.5739,1.05594 3.4039,17.14993 10.5739,-1.05593 3.5926,18.0961 -10.5739,1.05594 3.4039,17.14992 10.574,-1.05594 3.5926,18.09609 -10.574,1.05594 3.404,17.1499 10.5739,-1.05595 3.5926,18.09614 -10.574,1.05594 3.404,17.14989 10.5738,-1.05593 3.5926,18.09614 -10.5739,1.05595 3.404,17.14989 10.5739,-1.05594 1.4805,7.46046"
     inkscape:connector-curvature="0" />
  <path
     id="path4253"
     inkscape:label="part"
     style="fill:none;stroke:#000000;stroke-width:1.10205424"
     d="m 224.29932,601.00008 -22.1598,2.19915 0,0 -21.8805,2.1714 0,0 -21.96639,2.1799 0,0 -21.88042,2.17139 0,0 -21.96638,2.1799 0,0 -21.880421,2.17139 0,0 -21.9664,2.1799 0,0 -21.8804,2.17139 0,0 -22.15985,2.19916"
     inkscape:connector-curvature="0" />
  <path
     id="path4255"
     inkscape:label="part"
     style="fill:none;stroke:#000000;stroke-width:1"
     d="m 27.272759,620.55553 -0.0231,-7.60107 10.58075,-1.05659 -0.0531,-17.47315 -10.58075,1.0566 -0.056,-18.43732 10.58075,-1.0566 -0.053,-17.47316 -10.58075,1.0566 -0.056,-18.43731 10.58075,-1.0566 -0.0531,-17.47315 -10.58074,1.0565 -0.056,-18.43728 10.58075,-1.0566 -0.0531,-17.47318 -10.58073,1.0565 -0.056,-18.43727 10.58076,-1.0566 -0.0531,-17.4732 -10.58075,1.0566 -0.056,-18.43727 10.58075,-1.0565 -0.0531,-17.47319 -10.58074,1.0566 -0.056,-18.43727 10.58076,-1.0566 -0.0531,-17.47318 -10.58074,1.0566 -0.056,-18.43727 10.58074,-1.0565 -0.0531,-17.47319 -10.58075,1.05659 -0.056,-18.43726 10.58075,-1.0566 -0.0531,-17.47318 -10.58075,1.05659 -0.056,-18.43726 10.58075,-1.0566 -0.0531,-17.47317 -10.58076,1.05649 -0.0231,-7.60105"
     inkscape:connector-curvature="0" />
  <path
     id="path4259"
     inkscape:label="part"
     style="fill:none;stroke:#000000;stroke-width:0.80000001"
     d="m 292.33455,160.59356 -14.7056,0.0631 -0.0364,-8.5039 -13.91799,0.0597 0.0365,8.50381 -14.83317,0.0636 -0.0364,-8.50381 -13.91798,0.0597 0.0365,8.50381 -14.83317,0.0636 -0.0365,-8.5038 -13.91798,0.0597 0.0365,8.50381 -14.83316,0.0635 -0.0364,-8.5038 -13.91799,0.0597 0.0364,8.50379 -14.83315,0.0636 -0.0365,-8.50379 -13.91798,0.0597 0.0364,8.5038 -14.83315,0.0636 -0.0365,-8.50381 -13.91797,0.0596 0.0364,8.5039 -14.70559,0.063"
     inkscape:connector-curvature="0" />
  <path
     id="path4261"
     inkscape:label="part"
     style="fill:none;stroke:#000000;stroke-width:0.80000001"
     d="m 105.24966,161.39555 -0.0637,-14.86754 8.50385,-0.0365 -0.0597,-13.91793 -8.50384,0.0364 -0.0643,-14.99515 8.50386,-0.0364 -0.0596,-13.91803 -8.50386,0.0365 -0.0643,-14.995249 8.50384,-0.0364 -0.0597,-13.91802 -8.50385,0.0365 -0.0643,-14.99514 8.50385,-0.0365 -0.0597,-13.91793 -8.50384,0.0364 -0.0637,-14.86753"
     inkscape:connector-curvature="0" />
  <path
     id="path4263"
     inkscape:label="part"
     style="fill:none;stroke:#000000;stroke-width:0.80000001"
     d="m 104.69071,31.003081 14.7056,-0.0631 0.0365,8.50389 13.91798,-0.0597 -0.0365,-8.50381 14.83317,-0.0636 0.0365,8.50379 13.91799,-0.0597 -0.0365,-8.50381 14.83316,-0.0636 0.0365,8.5038 13.91799,-0.0597 -0.0365,-8.50379 14.83317,-0.0635 0.0364,8.5038 13.91799,-0.0597 -0.0365,-8.50379 14.83318,-0.0636 0.0364,8.50381 13.91797,-0.0597 -0.0364,-8.50379 14.83316,-0.0636 0.0365,8.50381 13.91796,-0.0596 -0.0364,-8.50391 14.70559,-0.063"
     inkscape:connector-curvature="0" />
  <path
     id="path4265"
     inkscape:label="part"
     style="fill:none;stroke:#000000;stroke-width:0.80000001"
     d="m 291.7756,30.201081 0.0637,14.86754 -8.50385,0.0365 0.0597,13.91792 8.50384,-0.0364 0.0643,14.99514 -8.50386,0.0364 0.0597,13.91802 8.50386,-0.0365 0.0643,14.995239 -8.50386,0.0364 0.0597,13.91802 8.50386,-0.0365 0.0643,14.99513 -8.50386,0.0365 0.0597,13.91792 8.50384,-0.0364 0.0637,14.86753"
     inkscape:connector-curvature="0" />
  <path
     id="path4251-3"
     inkscape:label="part"
     style="fill:none;stroke:#000000;stroke-width:1"
     d="m 267.25947,601.64837 -1.5269,-7.45109 10.5671,-1.12167 -3.5105,-17.12842 -10.5672,1.12158 -3.7051,-18.07339 10.5672,-1.12168 -3.5106,-17.12841 -10.5671,1.12157 -3.7051,-18.07341 10.5671,-1.12157 -3.5105,-17.12843 -10.567,1.12166 -3.705,-18.07342 10.567,-1.12156 -3.5106,-17.12843 -10.5672,1.12159 -3.705,-18.0734 10.5672,-1.12168 -3.5106,-17.12842 -10.5672,1.12168 -3.705,-18.0734 10.5672,-1.12168 -3.5105,-17.12843 -10.5671,1.12167 -3.7051,-18.07341 10.5671,-1.12167 -3.5105,-17.12843 -10.5672,1.12168 -3.7051,-18.0734 10.5672,-1.12168 -3.5105,-17.12839 -10.5672,1.12168 -3.705,-18.07345 10.5672,-1.12168 -3.5106,-17.12838 -10.5671,1.12167 -3.705,-18.07346 10.5672,-1.12168 -3.5107,-17.12839 -10.5671,1.12167 -1.5269,-7.4511"
     inkscape:connector-curvature="0" />
  <path
     id="path4253-5"
     inkscape:label="part"
     style="fill:none;stroke:#000000;stroke-width:1.10205424"
     d="m 195.04067,252.87362 22.1457,-2.33692 0,0 21.8666,-2.30744 0,0 21.9524,-2.31645 0,0 21.8665,-2.30743 0,0 21.9524,-2.31645 0,0 21.8665,-2.30743 0,0 21.9524,-2.31645 0,0 21.8664,-2.30743 0,0 22.1459,-2.33693"
     inkscape:connector-curvature="0" />
  <path
     id="path4255-6"
     inkscape:label="part"
     style="fill:none;stroke:#000000;stroke-width:1"
     d="m 391.94177,232.09326 0.07,7.60078 -10.5739,1.12237 0.1617,17.47248 10.574,-1.12238 0.1706,18.43662 -10.5739,1.12238 0.1616,17.47248 10.574,-1.12237 0.1707,18.43661 -10.574,1.12237 0.1618,17.47248 10.5739,-1.12228 0.1707,18.43658 -10.574,1.12238 0.1617,17.47251 10.574,-1.12227 0.1706,18.43657 -10.5739,1.12237 0.1617,17.47253 10.574,-1.12238 0.1706,18.43657 -10.5739,1.12228 0.1617,17.47251 10.574,-1.12237 0.1706,18.43657 -10.5739,1.12237 0.1617,17.47251 10.574,-1.12238 0.1707,18.43657 -10.574,1.12228 0.1618,17.47253 10.5739,-1.12238 0.1707,18.43656 -10.574,1.12237 0.1618,17.47252 10.5739,-1.12237 0.1707,18.43655 -10.574,1.12238 0.1618,17.47251 10.574,-1.12228 0.07,7.60077"
     inkscape:connector-curvature="0" />
  <path
     id="path4257-2"
     inkscape:label="part"
     style="fill:none;stroke:#000000;stroke-width:0.89850706"
     d="m 396.06907,587.81245 -14.5296,1.55516 1.1253,10.66794 -14.3464,1.53553 -1.1253,-10.66796 -14.4028,1.54153 1.1253,10.66793 -14.3465,1.53554 -1.1253,-10.66794 -14.4027,1.54153 1.1253,10.66793 -14.3464,1.53553 -1.1253,-10.66794 -14.4029,1.54153 1.1253,10.66795 -14.3464,1.53553 -1.1253,-10.66794 -14.5295,1.55516"
     inkscape:connector-curvature="0" />
  <rect
     style="fill:none;fill-opacity:1;stroke:#000000;stroke-width:0.60972208;stroke-miterlimit:4;stroke-dasharray:none;stroke-opacity:1"
     id="rect4381"
     width="14.617795"
     height="11.133024"
     x="28.488941"
     y="254.93819"
     ry="2.7420501e-14"
     transform="matrix(0.99537894,-0.09602481,0.09602481,0.99537894,0,0)" />
  <rect
     style="fill:none;fill-opacity:1;stroke:#000000;stroke-width:0.60972208;stroke-miterlimit:4;stroke-dasharray:none;stroke-opacity:1"
     id="rect4381-9"
     width="14.617795"
     height="11.133024"
     x="57.643909"
     y="254.74168"
     ry="2.7420501e-14"
     transform="matrix(0.99537894,-0.09602481,0.09602481,0.99537894,0,0)" />
  <rect
     style="fill:none;fill-opacity:1;stroke:#000000;stroke-width:0.60972208;stroke-miterlimit:4;stroke-dasharray:none;stroke-opacity:1"
     id="rect4381-9-1"
     width="14.617795"
     height="11.133024"
     x="86.43322"
     y="254.74168"
     ry="2.7420501e-14"
     transform="matrix(0.99537894,-0.09602481,0.09602481,0.99537894,0,0)" />
  <path
     style="fill:none;fill-rule:evenodd;stroke:#000000;stroke-width:1px;stroke-linecap:butt;stroke-linejoin:miter;stroke-opacity:1"
     d="m 154.35034,251.75057 -13.07787,1.29358 -20.69377,-48.38681 -7.71291,29.10574 -29.955141,-56.75385"
     id="path4413-7"
     inkscape:path-effect="#path-effect4415-2"
     inkscape:original-d="m 154.35034,251.75057 -13.07787,1.29358 -20.69377,-48.38681 -7.71291,29.10574 -29.955141,-56.75385"
     inkscape:connector-curvature="0"
     sodipodi:nodetypes="ccccc" />
  <path
     style="fill:none;fill-rule:evenodd;stroke:#000000;stroke-width:1px;stroke-linecap:butt;stroke-linejoin:miter;stroke-opacity:1"
     d="m 26.239679,264.87273 13.08397,-1.23027 11.06242,-51.45035 13.13459,27.09457 19.73763,-62.30887"
     id="path4413-7-9"
     inkscape:path-effect="#path-effect4415-2-0"
     inkscape:original-d="m 26.239679,264.87273 13.08397,-1.23027 11.06242,-51.45035 13.13459,27.09457 19.73763,-62.30887"
     inkscape:connector-curvature="0"
     sodipodi:nodetypes="ccccc" />
  <ellipse
     style="fill:none;fill-opacity:1;stroke:#00ff00;stroke-width:1;stroke-miterlimit:4;stroke-dasharray:none;stroke-opacity:1"
     id="path4501"
     cx="34.774464"
     cy="306.6489"
     rx="6.9447989"
     ry="16.28871"
     transform="matrix(0.99537894,-0.09602481,0.09602481,0.99537894,0,0)" />
  <ellipse
     style="fill:none;fill-opacity:1;stroke:#00ff00;stroke-width:1;stroke-miterlimit:4;stroke-dasharray:none;stroke-opacity:1"
     id="path4503"
     cx="36.289661"
     cy="297.93631"
     rx="2.1465743"
     ry="3.7880721"
     transform="matrix(0.99537894,-0.09602481,0.09602481,0.99537894,0,0)" />
  <ellipse
     style="fill:none;fill-opacity:1;stroke:#00ff00;stroke-width:1;stroke-miterlimit:4;stroke-dasharray:none;stroke-opacity:1"
     id="path4501-3"
     cx="88.186272"
     cy="306.77521"
     rx="6.9447989"
     ry="16.28871"
     transform="matrix(0.99537894,-0.09602481,0.09602481,0.99537894,0,0)" />
  <ellipse
     style="fill:none;fill-opacity:1;stroke:#00ff00;stroke-width:1;stroke-miterlimit:4;stroke-dasharray:none;stroke-opacity:1"
     id="path4503-6"
     cx="89.701469"
     cy="298.06262"
     rx="2.1465743"
     ry="3.7880721"
     transform="matrix(0.99537894,-0.09602481,0.09602481,0.99537894,0,0)" />
  <path
     style="fill:none;fill-rule:evenodd;stroke:#00ff00;stroke-width:1px;stroke-linecap:butt;stroke-linejoin:miter;stroke-opacity:1"
     d="m 75.839249,335.89518 37.754171,-3.13475 -37.754171,3.13475 z"
     id="path4527"
     inkscape:path-effect="#path-effect4529"
     inkscape:original-d="m 75.839249,335.89518 37.754171,-3.13475 c -20.990971,-33.49447 -37.754171,3.13475 -37.754171,3.13475 z"
     inkscape:connector-curvature="0" />
  <path
     style="fill:none;fill-rule:evenodd;stroke:#00ff00;stroke-width:1px;stroke-linecap:butt;stroke-linejoin:miter;stroke-opacity:1"
     d="m 76.341989,335.84668 37.000051,-3.062 c -18.592001,-29.66653 -37.000051,3.062 -37.000051,3.062 z"
     id="path4531"
     inkscape:connector-curvature="0" />
  <path
     style="fill:none;fill-rule:evenodd;stroke:#00ff00;stroke-width:1px;stroke-linecap:butt;stroke-linejoin:miter;stroke-opacity:1"
     d="m 81.362909,330.03439 27.675071,-2.41612"
     id="path4533"
     inkscape:path-effect="#path-effect4535"
     inkscape:original-d="m 81.362909,330.03439 27.675071,-2.41612"
     inkscape:connector-curvature="0" />
  <path
     style="fill:none;fill-rule:evenodd;stroke:#00ff00;stroke-width:1px;stroke-linecap:butt;stroke-linejoin:miter;stroke-opacity:1"
     d="m 83.836989,326.75119 1.02737,8.01962"
     id="path4537"
     inkscape:path-effect="#path-effect4539"
     inkscape:original-d="m 83.836989,326.75119 1.02737,8.01962"
     inkscape:connector-curvature="0" />
  <path
     style="fill:none;fill-rule:evenodd;stroke:#00ff00;stroke-width:1px;stroke-linecap:butt;stroke-linejoin:miter;stroke-opacity:1"
     d="m 89.027649,322.69849 1.79687,10.73621"
     id="path4541"
     inkscape:path-effect="#path-effect4543"
     inkscape:original-d="m 89.027649,322.69849 1.79687,10.73621"
     inkscape:connector-curvature="0" />
  <path
     style="fill:none;fill-rule:evenodd;stroke:#00ff00;stroke-width:1px;stroke-linecap:butt;stroke-linejoin:miter;stroke-opacity:1"
     d="m 94.842309,319.85415 1.76375,13.02281"
     id="path4545"
     inkscape:path-effect="#path-effect4547"
     inkscape:original-d="m 94.842309,319.85415 1.76375,13.02281"
     inkscape:connector-curvature="0" />
  <path
     style="fill:none;fill-rule:evenodd;stroke:#00ff00;stroke-width:1px;stroke-linecap:butt;stroke-linejoin:miter;stroke-opacity:1"
     d="m 102.67444,322.14311 -0.46548,10.95446"
     id="path4549"
     inkscape:path-effect="#path-effect4551"
     inkscape:original-d="m 102.67444,322.14311 -0.46548,10.95446"
     inkscape:connector-curvature="0" />
  <path
     style="fill:none;fill-rule:evenodd;stroke:#00ff00;stroke-width:1px;stroke-linecap:butt;stroke-linejoin:miter;stroke-opacity:1"
     d="m 107.3115,325.50142 0.582,6.03292"
     id="path4553"
     inkscape:path-effect="#path-effect4555"
     inkscape:original-d="m 107.3115,325.50142 0.582,6.03292"
     inkscape:connector-curvature="0" />
  <path
     style="fill:none;fill-rule:evenodd;stroke:#00ff00;stroke-width:1px;stroke-linecap:butt;stroke-linejoin:miter;stroke-opacity:1"
     d="m 79.724559,331.46099 0.79374,2.96796"
     id="path4557"
     inkscape:path-effect="#path-effect4559"
     inkscape:original-d="m 79.724559,331.46099 0.79374,2.96796"
     inkscape:connector-curvature="0" />
  <path
     style="fill:none;fill-rule:evenodd;stroke:#00ff00;stroke-width:1px;stroke-linecap:butt;stroke-linejoin:miter;stroke-opacity:1"
     d="m 54.149759,279.38044 16.58813,6.26476"
     id="path4561"
     inkscape:path-effect="#path-effect4563"
     inkscape:original-d="m 54.149759,279.38044 16.58813,6.26476"
     inkscape:connector-curvature="0" />
  <path
     style="fill:none;fill-rule:evenodd;stroke:#00ff00;stroke-width:1px;stroke-linecap:butt;stroke-linejoin:miter;stroke-opacity:1"
     d="m 108.26494,282.78608 15.3845,-8.84176"
     id="path4565"
     inkscape:path-effect="#path-effect4567"
     inkscape:original-d="m 108.26494,282.78608 15.3845,-8.84176"
     inkscape:connector-curvature="0" />
  <path
     sodipodi:type="star"
     style="fill:none;fill-opacity:1;stroke:#ff0000;stroke-width:1;stroke-miterlimit:4;stroke-dasharray:none;stroke-opacity:1"
     id="path4571"
     sodipodi:sides="5"
     sodipodi:cx="931.10803"
     sodipodi:cy="332.14673"
     sodipodi:r1="9.9616613"
     sodipodi:r2="4.9808307"
     sodipodi:arg1="1.0390723"
     sodipodi:arg2="1.6673908"
     inkscape:flatsided="false"
     inkscape:rounded="0"
     inkscape:randomized="0"
     d="m 936.15879,340.73303 -5.53113,-3.62869 -6.12491,2.49926 1.74187,-6.38175 -4.26964,-5.05282 6.60767,-0.31545 3.48613,-5.62208 2.34189,6.18679 6.42419,1.57819 -5.1603,4.1391 z"
     inkscape:transform-center-x="0.28758287"
     inkscape:transform-center-y="-0.67358293"
     transform="matrix(0.98197523,-0.18900966,0.18900966,0.98197523,-889.02916,78.492376)" />
  <path
     id="path4257-2-0"
     inkscape:label="part"
     style="fill:none;stroke:#ff0000;stroke-width:0.89850706;stroke-opacity:1"
     d="m 36.745489,378.6254 14.53904,-1.46478 -1.05894,-10.67472 14.35566,-1.44628 1.05894,10.67474 14.41207,-1.45193 -1.05893,-10.67472 14.35576,-1.44629 1.05893,10.67473 14.412081,-1.45192 -1.05893,-10.67473 14.35566,-1.44628 1.05893,10.67473 14.41218,-1.45193 -1.05893,-10.67474 14.35566,-1.44628 1.05893,10.67472 14.53893,-1.46476"
     inkscape:connector-curvature="0" />
  <path
     id="path4257-2-6"
     inkscape:label="part"
     style="fill:none;stroke:#ff0000;stroke-width:0.89850706;stroke-opacity:1"
     d="m 384.22997,473.73559 -14.5297,1.55516 1.1253,10.66794 -14.3464,1.53553 -1.1253,-10.66795 -14.4027,1.54152 1.1253,10.66793 -14.3465,1.53555 -1.1253,-10.66795 -14.4028,1.54153 1.1253,10.66793 -14.3464,1.53553 -1.1253,-10.66794 -14.4029,1.54153 1.1253,10.66795 -14.3463,1.53553 -1.1253,-10.66793 -14.5296,1.55515"
     inkscape:connector-curvature="0" />
  <path
     id="path4227-2"
     inkscape:label="part"
     style="fill:none;stroke:#ff0000;stroke-width:0.9655779;stroke-opacity:1"
     d="m 503.80009,885.79216 -6.82239,0.76348 1.19347,10.66467 -16.55308,1.85243 -1.19347,-10.66467 -16.43228,1.83891 1.19347,10.66467 -16.55309,1.85243 -1.19347,-10.66467 -16.43228,1.83891 1.19346,10.66467 -16.55308,1.85243 -1.19346,-10.66467 -16.43229,1.83891 1.19347,10.66467 -16.55308,1.85242 -1.19346,-10.66467 -16.43231,1.83892 1.19347,10.66467 -16.55306,1.85242 -1.19347,-10.66467 -16.43229,1.83891 1.19346,10.66467 -16.55308,1.85243 -1.19346,-10.66467 -6.8224,0.76348"
     inkscape:connector-curvature="0" />
  <path
     id="path4227-6"
     inkscape:label="part"
     style="fill:none;stroke:#000000;stroke-width:0.89867973"
     d="m 32.279242,681.43978 5.907344,-0.68286 -1.232268,-10.66025 14.332908,-1.65681 1.232269,10.66026 14.228301,-1.64472 -1.232268,-10.66025 14.332918,-1.65681 1.232269,10.66025 14.228319,-1.64472 -1.23227,-10.66025 14.332906,-1.65681 1.23226,10.66026 14.22832,-1.64472 -1.23227,-10.66025 14.3329,-1.65681 1.23227,10.66025 14.22832,-1.64472 -1.23226,-10.66025 14.33289,-1.65681 1.23227,10.66026 14.22832,-1.64472 -1.23227,-10.66025 14.33291,-1.65681 1.23227,10.66025 5.90734,-0.68285"
     inkscape:connector-curvature="0" />
  <path
     id="path4229-1"
     inkscape:label="part"
     style="fill:none;stroke:#000000;stroke-width:1"
     d="m 200.77221,661.91191 1.71521,7.09929 10.55961,-1.22063 4.26725,17.66225 -10.55961,1.22063 4.19257,17.35312 10.5596,-1.22063 4.26726,17.66225 -10.55961,1.22063 4.19256,17.35312 10.55961,-1.22063 4.26726,17.66225 -10.5596,1.22063 4.19257,17.35312 10.5596,-1.22063 4.26726,17.66225 -10.55961,1.22063 4.19256,17.35312 10.55961,-1.22063 4.26725,17.66225 -10.5596,1.22063 4.19256,17.35312 10.5596,-1.22063 4.26726,17.66225 -10.55961,1.22063 4.19258,17.35312 10.5596,-1.22063 4.26726,17.66225 -10.5596,1.22063 4.19256,17.35312 10.55961,-1.22064 4.26725,17.66226 -10.5596,1.22063 4.19256,17.35312 10.5596,-1.22063 4.26726,17.66226 -10.55961,1.22063 4.19256,17.35303 10.5596,-1.2206 4.26727,17.66225 -10.5596,1.2207 1.71521,7.0993"
     inkscape:connector-curvature="0" />
  <path
     id="path4231-8"
     inkscape:label="part"
     style="fill:none;stroke:#000000;stroke-width:1.09307361"
     d="m 284.10702,1008.969 -8.82268,1.0199 0,0 -21.40638,2.4744 0,0 -21.25016,2.4564 0,0 -21.40637,2.4745 0,0 -21.25016,2.4564 0,0 -21.40637,2.4744 0,0 -21.25016,2.4565 0,0 -21.40638,2.4744 0,0 -21.25016,2.4564 0,0 -21.406386,2.4745 0,0 -21.250145,2.4564 0,0 -21.406377,2.4745 0,0 -8.822681,1.0198"
     inkscape:connector-curvature="0" />
  <path
     id="path4233-7"
     inkscape:label="part"
     style="fill:none;stroke:#000000;stroke-width:1"
     d="m 30.769134,1038.2535 0.02982,-7.301 -10.559615,1.2206 0.07421,-18.1642 10.559615,-1.2206 0.07291,-17.84605 -10.559615,1.2206 0.07422,-18.16409 10.559614,-1.22064 0.07291,-17.84618 -10.559614,1.22064 0.07422,-18.16411 10.559615,-1.22063 0.07292,-17.84619 -10.559615,1.22064 0.07421,-18.1641 10.559614,-1.22064 0.07292,-17.84618 -10.559614,1.22063 0.07421,-18.1641 10.559615,-1.22064 0.07291,-17.84618 -10.559615,1.22064 0.07421,-18.16411 10.559614,-1.22063 0.07292,-17.84618 -10.559614,1.22063 0.07421,-18.1641 10.559615,-1.22064 0.07292,-17.84618 -10.559615,1.22063 0.07421,-18.1641 10.559614,-1.22063 0.07291,-17.84619 -10.559614,1.22064 0.07421,-18.16411 10.559615,-1.22063 0.07292,-17.84618 -10.559615,1.22063 0.07421,-18.1641 10.559615,-1.22064 0.02983,-7.30101"
     inkscape:connector-curvature="0" />
  <path
     id="path4227-2-9"
     inkscape:label="part"
     style="fill:none;stroke:#ff0000;stroke-width:0.9655779;stroke-opacity:1"
     d="m 31.42665,796.51263 6.819569,-0.7883 -1.232268,-10.66026 16.54623,-1.91265 1.232268,10.66025 16.425475,-1.8987 -1.232268,-10.66025 16.546238,-1.91266 1.23227,10.66026 16.425476,-1.8987 -1.23227,-10.66025 16.54623,-1.91266 1.23227,10.66025 16.42549,-1.89869 -1.23227,-10.66026 16.54622,-1.91265 1.23227,10.66025 16.4255,-1.8987 -1.23227,-10.66025 16.54621,-1.91266 1.23227,10.66026 16.4255,-1.8987 -1.23227,-10.66026 16.54623,-1.91265 1.23227,10.66025 6.81957,-0.7883"
     inkscape:connector-curvature="0" />
</svg>
