<?xml version="1.0" encoding="UTF-8" standalone="no"?>
<!-- Created with Inkscape (http://www.inkscape.org/) -->

<svg
   xmlns:dc="http://purl.org/dc/elements/1.1/"
   xmlns:cc="http://creativecommons.org/ns#"
   xmlns:rdf="http://www.w3.org/1999/02/22-rdf-syntax-ns#"
   xmlns:svg="http://www.w3.org/2000/svg"
   xmlns="http://www.w3.org/2000/svg"
   xmlns:sodipodi="http://sodipodi.sourceforge.net/DTD/sodipodi-0.dtd"
   xmlns:inkscape="http://www.inkscape.org/namespaces/inkscape"
   width="210mm"
   height="297mm"
   viewBox="0 0 744.09448819 1052.3622047"
   id="svg2"
   version="1.1"
   inkscape:version="0.91 r13725"
   sodipodi:docname="robotWarsV1.svg">
  <defs
     id="defs4">
    <inkscape:perspective
       sodipodi:type="inkscape:persp3d"
       inkscape:vp_x="0 : 526.1811 : 1"
       inkscape:vp_y="0 : 1000 : 0"
       inkscape:vp_z="744.09449 : 526.1811 : 1"
       inkscape:persp3d-origin="372.04724 : 350.7874 : 1"
       id="perspective5838" />
  </defs>
  <sodipodi:namedview
     id="base"
     pagecolor="#ffffff"
     bordercolor="#666666"
     borderopacity="1.0"
     inkscape:pageopacity="0.0"
     inkscape:pageshadow="2"
     inkscape:zoom="0.811897"
     inkscape:cx="339.73697"
     inkscape:cy="692.36452"
     inkscape:document-units="mm"
     inkscape:current-layer="layer1"
     showgrid="false"
     inkscape:window-width="1855"
     inkscape:window-height="1056"
     inkscape:window-x="65"
     inkscape:window-y="24"
     inkscape:window-maximized="1" />
  <metadata
     id="metadata7">
    <rdf:RDF>
      <cc:Work
         rdf:about="">
        <dc:format>image/svg+xml</dc:format>
        <dc:type
           rdf:resource="http://purl.org/dc/dcmitype/StillImage" />
        <dc:title></dc:title>
      </cc:Work>
    </rdf:RDF>
  </metadata>
  <g
     inkscape:label="Layer 1"
     inkscape:groupmode="layer"
     id="layer1">
    <path
       style="fill:none;fill-opacity:1;stroke:#ff0000;stroke-width:0.70866142;stroke-miterlimit:4;stroke-dasharray:none;stroke-dashoffset:0;stroke-opacity:1"
       d="m 552.74518,473.84223 c 0,78.24129 -100.366,141.66838 -224.17374,141.66838 -123.80775,0 -224.17376,-63.42709 -224.17376,-141.66838 l 0.39294,-248.66483 c 0,-97.94758 100.34998,-177.349782 224.13796,-177.349783 123.78797,4e-6 224.13794,79.402203 224.13794,177.349783 z"
       id="path4164-6"
       inkscape:connector-curvature="0"
       sodipodi:nodetypes="csccscc" />
    <path
       style="fill:none;fill-opacity:1;stroke:#000000;stroke-width:0.70866142;stroke-miterlimit:4;stroke-dasharray:none;stroke-dashoffset:0;stroke-opacity:1"
       d="m 222.14285,225.93361 212.85715,0 0,212.85715 -212.85715,0 z"
       id="rect4161" />
    <path
       transform="scale(-1,-1)"
       style="fill:none;fill-rule:evenodd;stroke:#1f1a17;stroke-width:0.70866142;image-rendering:optimizeQuality;shape-rendering:geometricPrecision;text-rendering:geometricPrecision;stroke-miterlimit:4;stroke-dasharray:none"
       d="m -290.03989,-143.04066 35.43309,0 0,10.6299 -35.43309,0 z"
       id="rect5169" />
    <path
       transform="scale(-1,-1)"
       style="fill:none;fill-rule:evenodd;stroke:#1f1a17;stroke-width:0.70866142;image-rendering:optimizeQuality;shape-rendering:geometricPrecision;text-rendering:geometricPrecision;stroke-miterlimit:4;stroke-dasharray:none"
       d="m -219.17389,-143.04066 35.43309,0 0,10.6299 -35.43309,0 z"
       id="rect5171" />
    <path
       transform="scale(-1,-1)"
       style="fill:none;fill-rule:evenodd;stroke:#1f1a17;stroke-width:0.70866142;image-rendering:optimizeQuality;shape-rendering:geometricPrecision;text-rendering:geometricPrecision;stroke-miterlimit:4;stroke-dasharray:none"
       d="m -231.39826,-137.72169 a 5.4921241,5.4921241 0 0 1 -5.49212,5.49212 5.4921241,5.4921241 0 0 1 -5.49212,-5.49212 5.4921241,5.4921241 0 0 1 5.49212,-5.49213 5.4921241,5.4921241 0 0 1 5.49212,5.49213 z"
       id="circle5173-9" />
    <path
       inkscape:connector-curvature="0"
       id="rect5169-3"
       d="m 474.13065,143.0488 -35.43309,0 0,-10.6299 35.43309,0 z"
       style="fill:none;fill-rule:evenodd;stroke:#1f1a17;stroke-width:0.70866142;image-rendering:optimizeQuality;shape-rendering:geometricPrecision;text-rendering:geometricPrecision;stroke-miterlimit:4;stroke-dasharray:none" />
    <path
       inkscape:connector-curvature="0"
       id="rect5171-5"
       d="m 403.26465,143.0488 -35.43309,0 0,-10.6299 35.43309,0 z"
       style="fill:none;fill-rule:evenodd;stroke:#1f1a17;stroke-width:0.70866142;image-rendering:optimizeQuality;shape-rendering:geometricPrecision;text-rendering:geometricPrecision;stroke-miterlimit:4;stroke-dasharray:none" />
    <path
       inkscape:connector-curvature="0"
       id="circle5173-9-6"
       d="m 415.48902,137.7298 a 5.4921242,5.4921242 0 0 1 5.49213,-5.49216 5.4921242,5.4921242 0 0 1 5.49212,5.49216 5.4921242,5.4921242 0 0 1 -5.49212,5.49216 5.4921242,5.4921242 0 0 1 -5.49213,-5.49216 z"
       style="fill:none;fill-rule:evenodd;stroke:#1f1a17;stroke-width:0.70866142;image-rendering:optimizeQuality;shape-rendering:geometricPrecision;text-rendering:geometricPrecision;stroke-miterlimit:4;stroke-dasharray:none" />
    <path
       inkscape:connector-curvature="0"
       id="rect5169-0"
       d="m 290.03989,530.60074 -35.43309,0 0,-10.6299 35.43309,0 z"
       style="fill:none;fill-rule:evenodd;stroke:#1f1a17;stroke-width:0.70866142;image-rendering:optimizeQuality;shape-rendering:geometricPrecision;text-rendering:geometricPrecision;stroke-miterlimit:4;stroke-dasharray:none" />
    <path
       inkscape:connector-curvature="0"
       id="rect5171-6"
       d="m 219.17389,530.60074 -35.43309,0 0,-10.6299 35.43309,0 z"
       style="fill:none;fill-rule:evenodd;stroke:#1f1a17;stroke-width:0.70866142;image-rendering:optimizeQuality;shape-rendering:geometricPrecision;text-rendering:geometricPrecision;stroke-miterlimit:4;stroke-dasharray:none" />
    <path
       inkscape:connector-curvature="0"
       id="circle5173-9-2"
       d="m 231.39826,525.28177 a 5.4921241,5.4921241 0 0 1 5.49212,-5.49212 5.4921241,5.4921241 0 0 1 5.49212,5.49212 5.4921241,5.4921241 0 0 1 -5.49212,5.49213 5.4921241,5.4921241 0 0 1 -5.49212,-5.49213 z"
       style="fill:none;fill-rule:evenodd;stroke:#1f1a17;stroke-width:0.70866142;image-rendering:optimizeQuality;shape-rendering:geometricPrecision;text-rendering:geometricPrecision;stroke-miterlimit:4;stroke-dasharray:none" />
    <path
       style="fill:none;fill-rule:evenodd;stroke:#1f1a17;stroke-width:0.70866142;image-rendering:optimizeQuality;shape-rendering:geometricPrecision;text-rendering:geometricPrecision;stroke-miterlimit:4;stroke-dasharray:none"
       d="m 474.13065,530.6089 -35.43309,0 0,-10.6299 35.43309,0 z"
       id="rect5169-3-1"
       inkscape:connector-curvature="0" />
    <path
       style="fill:none;fill-rule:evenodd;stroke:#1f1a17;stroke-width:0.70866142;image-rendering:optimizeQuality;shape-rendering:geometricPrecision;text-rendering:geometricPrecision;stroke-miterlimit:4;stroke-dasharray:none"
       d="m 403.26465,530.6089 -35.43309,0 0,-10.6299 35.43309,0 z"
       id="rect5171-5-8"
       inkscape:connector-curvature="0" />
    <path
       style="fill:none;fill-rule:evenodd;stroke:#1f1a17;stroke-width:0.70866142;image-rendering:optimizeQuality;shape-rendering:geometricPrecision;text-rendering:geometricPrecision;stroke-miterlimit:4;stroke-dasharray:none"
       d="m 415.48902,525.2899 a 5.4921242,5.4921242 0 0 1 5.49213,-5.49216 5.4921242,5.4921242 0 0 1 5.49212,5.49216 5.4921242,5.4921242 0 0 1 -5.49212,5.49216 5.4921242,5.4921242 0 0 1 -5.49213,-5.49216 z"
       id="circle5173-9-6-7"
       inkscape:connector-curvature="0" />
    <path
       style="fill:none;fill-rule:evenodd;stroke:#1f1a17;stroke-width:0.70866142;image-rendering:optimizeQuality;shape-rendering:geometricPrecision;text-rendering:geometricPrecision;stroke-miterlimit:4;stroke-dasharray:none"
       d="m 172.27927,-6.3292169 a 5.4921242,5.4921242 0 0 1 -5.49216,-5.4921301 5.4921242,5.4921242 0 0 1 5.49216,-5.49212 5.4921242,5.4921242 0 0 1 5.49216,5.49212 5.4921242,5.4921242 0 0 1 -5.49216,5.4921301 z"
       id="circle5173"
       inkscape:connector-curvature="0" />
    <path
       style="fill:none;fill-rule:evenodd;stroke:#1f1a17;stroke-width:0.70866142;image-rendering:optimizeQuality;shape-rendering:geometricPrecision;text-rendering:geometricPrecision;stroke-miterlimit:4;stroke-dasharray:none"
       d="m 473.26164,-6.5636469 c 3.03318,2e-5 5.49216,-2.4589 5.49216,-5.4921301 0,-3.03323 -2.45898,-5.49214 -5.49216,-5.49212 -3.03327,-2e-5 -5.49216,2.45889 -5.49216,5.49212 0,3.0332301 2.45889,5.4921501 5.49216,5.4921301 z"
       id="circle5173-2"
       inkscape:connector-curvature="0"
       sodipodi:nodetypes="cscsc" />
    <path
       style="fill:none;fill-rule:evenodd;stroke:#ff0000;stroke-width:0.70866142;image-rendering:optimizeQuality;shape-rendering:geometricPrecision;text-rendering:geometricPrecision;stroke-miterlimit:4;stroke-dasharray:none"
       d="m 360.96035,37.522743 -76.38042,0 0.0772,-10.39297 -107.22866,0.14664 0,-21.38125 -10.42443,0.12932 c -17.89155,0.21838 -17.4141,-36.06948 0,-35.75218 l 10.42443,0.18995 0.0769,-21.50204 0.0769,-10.6899 35.43309,0 0,10.6299 12.04722,0 0,10.6299 -5.66929,0 0,10.6299 5.66929,0 0,7.0866 11.33856,0 0,-7.0866 5.66929,0 0,-10.6299 -5.66929,0 0,-10.6299 12.04722,0 0,-10.6299 35.43309,0 0.0632,10.66926 77.78667,-0.0224 -0.0583,-10.63877 35.43309,0 0,10.6299 12.04722,0 0,10.6299 -5.66929,0 0,10.6299 5.66929,0 0,7.0866 11.33856,0 0,-7.0866 5.66929,0 0,-10.6299 -5.66929,0 0,-10.6299 12.04722,0 0,-10.6299 35.43309,0 0.0771,10.62952 0.0771,21.31994 10.41039,-0.18995 c 17.41248,-0.39325 17.89146,35.97441 0,35.75217 l -10.41039,-0.12931 0,21.52405 -107.24335,-0.067 z"
       id="rect5169-9-2"
       inkscape:connector-curvature="0"
       sodipodi:nodetypes="cccccssccccccccccccccccccccccccccccccccccccccccccsscccc" />
    <path
       transform="matrix(0,-1,1,0,0,0)"
       style="fill:none;fill-rule:evenodd;stroke:#1f1a17;stroke-width:0.70866142;image-rendering:optimizeQuality;shape-rendering:geometricPrecision;text-rendering:geometricPrecision;stroke-miterlimit:4;stroke-dasharray:none"
       d="m -369.50739,172.41716 76.38043,0 0,10.50581 -76.38043,0 z"
       id="rect5169-9-5" />
    <path
       style="fill:none;fill-rule:evenodd;stroke:#000000;stroke-width:0.70866144;stroke-miterlimit:4;stroke-dasharray:none;image-rendering:optimizeQuality;shape-rendering:geometricPrecision;text-rendering:geometricPrecision"
       d="m 730.41046,630.75036 a 5.4921241,5.4921241 0 0 1 5.49212,5.49212 5.4921241,5.4921241 0 0 1 -5.49212,5.49212 5.4921241,5.4921241 0 0 1 -5.49212,-5.49212 5.4921241,5.4921241 0 0 1 5.49212,-5.49212 z"
       id="circle5173-9-3"
       inkscape:connector-curvature="0" />
    <path
       style="fill:none;fill-rule:evenodd;stroke:#000000;stroke-width:0.70866144;stroke-miterlimit:4;stroke-dasharray:none;image-rendering:optimizeQuality;shape-rendering:geometricPrecision;text-rendering:geometricPrecision"
       d="m 730.41046,693.25828 a 5.4921241,5.4921241 0 0 1 5.49212,5.49213 5.4921241,5.4921241 0 0 1 -5.49212,5.49212 5.4921241,5.4921241 0 0 1 -5.49212,-5.49212 5.4921241,5.4921241 0 0 1 5.49212,-5.49213 z"
       id="circle5173-9-3-7"
       inkscape:connector-curvature="0" />
    <path
       style="fill:none;fill-rule:evenodd;stroke:#ff0000;stroke-width:0.70866144;stroke-miterlimit:4;stroke-dasharray:none;image-rendering:optimizeQuality;shape-rendering:geometricPrecision;text-rendering:geometricPrecision"
       d="m 537.99551,706.32902 -0.008,-21.73312 10.62157,0.36215 0,-12.04722 10.6299,0 0,5.66929 10.6299,0 0,-5.66929 7.0866,0 0,-11.33856 -7.0866,0 0,-5.66929 -10.6299,0 0,5.66929 -10.6299,0 0,-12.04722 -10.62157,0.18176 0.008,-21.55273 160.76236,-0.033 0.13107,-10.53885 76.38043,0 -0.21803,10.53882 161.11913,0.033 -0.0564,20.91707 -10.68634,-0.0512 0,12.04722 -10.6299,0 0,-5.66929 -10.6299,0 0,5.66929 -7.0866,0 0,11.33856 7.0866,0 0,5.66929 10.6299,0 0,-5.66929 10.6299,0 0,12.04722 10.68634,0.0124 0.0564,21.8637 -161.0063,0.35837 0.1052,10.86419 -76.38043,0 0.0568,-10.86419 z"
       id="rect5169-9-5-9"
       inkscape:connector-curvature="0"
       sodipodi:nodetypes="ccccccccccccccccccccccccccccccccccccccccccccc" />
    <path
       transform="matrix(0,-1,1,0,0,0)"
       style="fill:none;fill-rule:evenodd;stroke:#1f1a17;stroke-width:0.70866142;image-rendering:optimizeQuality;shape-rendering:geometricPrecision;text-rendering:geometricPrecision;stroke-miterlimit:4;stroke-dasharray:none"
       d="m -369.50739,473.25607 76.38043,0 0,10.50581 -76.38043,0 z"
       id="rect5169-9-5-2" />
    <path
       inkscape:connector-curvature="0"
       style="fill:none;fill-rule:evenodd;stroke:#1f1a17;stroke-width:0.70866142;image-rendering:optimizeQuality;shape-rendering:geometricPrecision;text-rendering:geometricPrecision;stroke-miterlimit:4;stroke-dasharray:none"
       d="m 154.07999,195.72644 a 5.4921241,5.4921241 0 0 1 5.49212,-5.49212 5.4921241,5.4921241 0 0 1 5.49212,5.49212 5.4921241,5.4921241 0 0 1 -5.49212,5.49213 5.4921241,5.4921241 0 0 1 -5.49212,-5.49213 z"
       id="circle5173-9-76" />
    <path
       inkscape:connector-curvature="0"
       style="fill:none;fill-rule:evenodd;stroke:#1f1a17;stroke-width:0.70866142;image-rendering:optimizeQuality;shape-rendering:geometricPrecision;text-rendering:geometricPrecision;stroke-miterlimit:4;stroke-dasharray:none"
       d="m 492.79291,195.72644 a 5.4921241,5.4921241 0 0 1 5.49212,-5.49212 5.4921241,5.4921241 0 0 1 5.49212,5.49212 5.4921241,5.4921241 0 0 1 -5.49212,5.49213 5.4921241,5.4921241 0 0 1 -5.49212,-5.49213 z"
       id="circle5173-9-5" />
    <path
       inkscape:connector-curvature="0"
       style="fill:none;fill-rule:evenodd;stroke:#1f1a17;stroke-width:0.70866142;image-rendering:optimizeQuality;shape-rendering:geometricPrecision;text-rendering:geometricPrecision;stroke-miterlimit:4;stroke-dasharray:none"
       d="m 154.07999,468.838 a 5.4921241,5.4921241 0 0 1 5.49212,-5.49212 5.4921241,5.4921241 0 0 1 5.49212,5.49212 5.4921241,5.4921241 0 0 1 -5.49212,5.49213 5.4921241,5.4921241 0 0 1 -5.49212,-5.49213 z"
       id="circle5173-9-76-9" />
    <path
       inkscape:connector-curvature="0"
       style="fill:none;fill-rule:evenodd;stroke:#1f1a17;stroke-width:0.70866142;image-rendering:optimizeQuality;shape-rendering:geometricPrecision;text-rendering:geometricPrecision;stroke-miterlimit:4;stroke-dasharray:none"
       d="m 492.79291,468.838 a 5.4921241,5.4921241 0 0 1 5.49212,-5.49212 5.4921241,5.4921241 0 0 1 5.49212,5.49212 5.4921241,5.4921241 0 0 1 -5.49212,5.49213 5.4921241,5.4921241 0 0 1 -5.49212,-5.49213 z"
       id="circle5173-9-5-3" />
    <path
       style="fill:none;fill-opacity:1;stroke:#ff0000;stroke-width:0.70866142;stroke-miterlimit:4;stroke-dasharray:none;stroke-dashoffset:0;stroke-opacity:1"
       d="m 1025.2702,469.9202 c 0,78.24129 -100.36602,141.66838 -224.17376,141.66838 -123.80775,0 -224.17376,-63.42709 -224.17376,-141.66838 l 0.39294,-248.66483 c 0,-97.94757 100.34998,-177.349778 224.13796,-177.349779 123.78797,4e-6 224.13792,79.402209 224.13792,177.349779 z"
       id="path4164-6-5"
       inkscape:connector-curvature="0"
       sodipodi:nodetypes="csccscc" />
    <path
       id="path4182-4"
       d="m 779.54282,567.56789 a 4.2857141,4.2857141 0 0 1 -4.28572,4.28571 4.2857141,4.2857141 0 0 1 -4.28571,-4.28571 4.2857141,4.2857141 0 0 1 4.28571,-4.28572 4.2857141,4.2857141 0 0 1 4.28572,4.28572 z"
       style="fill:none;fill-opacity:1;stroke:#000000;stroke-width:0.70866142;stroke-miterlimit:4;stroke-dasharray:none;stroke-dashoffset:0;stroke-opacity:1"
       inkscape:connector-curvature="0" />
    <path
       id="path4182-6-4"
       d="m 831.54282,567.56789 a 4.2857141,4.2857141 0 0 1 -4.28572,4.28571 4.2857141,4.2857141 0 0 1 -4.28571,-4.28571 4.2857141,4.2857141 0 0 1 4.28571,-4.28572 4.2857141,4.2857141 0 0 1 4.28572,4.28572 z"
       style="fill:none;fill-opacity:1;stroke:#000000;stroke-width:0.70866142;stroke-miterlimit:4;stroke-dasharray:none;stroke-dashoffset:0;stroke-opacity:1"
       inkscape:connector-curvature="0" />
    <path
       inkscape:connector-curvature="0"
       style="fill:none;fill-rule:evenodd;stroke:#1f1a17;stroke-width:0.70866142;image-rendering:optimizeQuality;shape-rendering:geometricPrecision;text-rendering:geometricPrecision;stroke-miterlimit:4;stroke-dasharray:none"
       d="m 839.64377,139.05024 -76.38042,0 0,-10.50581 76.38042,0 z"
       id="rect5169-9-26" />
    <path
       inkscape:connector-curvature="0"
       style="fill:none;fill-rule:evenodd;stroke:#1f1a17;stroke-width:0.70866142;image-rendering:optimizeQuality;shape-rendering:geometricPrecision;text-rendering:geometricPrecision;stroke-miterlimit:4;stroke-dasharray:none"
       d="m 839.64377,526.73434 -76.38042,0 0,-10.5058 76.38042,0 z"
       id="rect5169-9-0-6" />
    <path
       inkscape:connector-curvature="0"
       style="fill:none;fill-rule:evenodd;stroke:#1f1a17;stroke-width:0.70866142;image-rendering:optimizeQuality;shape-rendering:geometricPrecision;text-rendering:geometricPrecision;stroke-miterlimit:4;stroke-dasharray:none"
       d="m 644.94216,365.58536 0,-76.38043 10.50581,0 0,76.38043 z"
       id="rect5169-9-5-4" />
    <path
       inkscape:connector-curvature="0"
       style="fill:none;fill-rule:evenodd;stroke:#1f1a17;stroke-width:0.70866142;image-rendering:optimizeQuality;shape-rendering:geometricPrecision;text-rendering:geometricPrecision;stroke-miterlimit:4;stroke-dasharray:none"
       d="m 945.78107,365.58536 0,-76.38043 10.50581,0 0,76.38043 z"
       id="rect5169-9-5-2-9" />
    <path
       inkscape:connector-curvature="0"
       style="fill:none;fill-rule:evenodd;stroke:#1f1a17;stroke-width:0.70866142;image-rendering:optimizeQuality;shape-rendering:geometricPrecision;text-rendering:geometricPrecision;stroke-miterlimit:4;stroke-dasharray:none"
       d="m 626.60499,191.80441 a 5.4921241,5.4921241 0 0 1 5.49212,-5.49212 5.4921241,5.4921241 0 0 1 5.49212,5.49212 5.4921241,5.4921241 0 0 1 -5.49212,5.49213 5.4921241,5.4921241 0 0 1 -5.49212,-5.49213 z"
       id="circle5173-9-76-0" />
    <path
       inkscape:connector-curvature="0"
       style="fill:none;fill-rule:evenodd;stroke:#1f1a17;stroke-width:0.70866142;image-rendering:optimizeQuality;shape-rendering:geometricPrecision;text-rendering:geometricPrecision;stroke-miterlimit:4;stroke-dasharray:none"
       d="m 965.31791,191.80441 a 5.4921241,5.4921241 0 0 1 5.49212,-5.49212 5.4921241,5.4921241 0 0 1 5.49212,5.49212 5.4921241,5.4921241 0 0 1 -5.49212,5.49213 5.4921241,5.4921241 0 0 1 -5.49212,-5.49213 z"
       id="circle5173-9-5-4" />
    <path
       inkscape:connector-curvature="0"
       style="fill:none;fill-rule:evenodd;stroke:#1f1a17;stroke-width:0.70866142;image-rendering:optimizeQuality;shape-rendering:geometricPrecision;text-rendering:geometricPrecision;stroke-miterlimit:4;stroke-dasharray:none"
       d="m 626.60499,464.91597 a 5.4921241,5.4921241 0 0 1 5.49212,-5.49212 5.4921241,5.4921241 0 0 1 5.49212,5.49212 5.4921241,5.4921241 0 0 1 -5.49212,5.49213 5.4921241,5.4921241 0 0 1 -5.49212,-5.49213 z"
       id="circle5173-9-76-9-7" />
    <path
       inkscape:connector-curvature="0"
       style="fill:none;fill-rule:evenodd;stroke:#1f1a17;stroke-width:0.70866142;image-rendering:optimizeQuality;shape-rendering:geometricPrecision;text-rendering:geometricPrecision;stroke-miterlimit:4;stroke-dasharray:none"
       d="m 965.31791,464.91597 a 5.4921241,5.4921241 0 0 1 5.49212,-5.49212 5.4921241,5.4921241 0 0 1 5.49212,5.49212 5.4921241,5.4921241 0 0 1 -5.49212,5.49213 5.4921241,5.4921241 0 0 1 -5.49212,-5.49213 z"
       id="circle5173-9-5-3-1" />
    <path
       style="fill:none;fill-rule:evenodd;stroke:#1f1a17;stroke-width:0.70866142;image-rendering:optimizeQuality;shape-rendering:geometricPrecision;text-rendering:geometricPrecision;stroke-miterlimit:4;stroke-dasharray:none"
       d="m 203.16186,680.22875 a 5.4921242,5.4921242 0 0 1 -5.49216,-5.49213 5.4921242,5.4921242 0 0 1 5.49216,-5.49212 5.4921242,5.4921242 0 0 1 5.49216,5.49212 5.4921242,5.4921242 0 0 1 -5.49216,5.49213 z"
       id="circle5173-90"
       inkscape:connector-curvature="0" />
    <path
       style="fill:none;fill-rule:evenodd;stroke:#1f1a17;stroke-width:0.70866142;image-rendering:optimizeQuality;shape-rendering:geometricPrecision;text-rendering:geometricPrecision;stroke-miterlimit:4;stroke-dasharray:none"
       d="m 504.14424,679.99432 c 3.03318,2e-5 5.49216,-2.4589 5.49216,-5.49213 0,-3.03323 -2.45898,-5.49214 -5.49216,-5.49212 -3.03327,-2e-5 -5.49216,2.45889 -5.49216,5.49212 0,3.03323 2.45889,5.49215 5.49216,5.49213 z"
       id="circle5173-2-1"
       inkscape:connector-curvature="0"
       sodipodi:nodetypes="cscsc" />
    <path
       style="fill:none;fill-rule:evenodd;stroke:#ff0000;stroke-width:0.70866142;image-rendering:optimizeQuality;shape-rendering:geometricPrecision;text-rendering:geometricPrecision;stroke-miterlimit:4;stroke-dasharray:none"
       d="m 391.84294,724.08071 -76.38042,0 0.0772,-10.39297 -107.22866,0.14664 0,-21.38125 -10.42443,0.12932 c -17.89155,0.21838 -17.4141,-36.06948 0,-35.75218 l 10.42443,0.18995 0.0769,-21.50204 0.0769,-10.6899 35.43309,0 0,10.6299 12.04722,0 0,10.6299 -5.66929,0 0,10.6299 5.66929,0 0,7.0866 11.33856,0 0,-7.0866 5.66929,0 0,-10.6299 -5.66929,0 0,-10.6299 12.04722,0 0,-10.6299 35.43309,0 0.0632,10.66926 77.78667,-0.0224 -0.0583,-10.63877 35.43309,0 0,10.6299 12.04722,0 0,10.6299 -5.66929,0 0,10.6299 5.66929,0 0,7.0866 11.33856,0 0,-7.0866 5.66929,0 0,-10.6299 -5.66929,0 0,-10.6299 12.04722,0 0,-10.6299 35.43309,0 0.0771,10.62952 0.0771,21.31994 10.41039,-0.18995 c 17.41248,-0.39325 17.89146,35.97441 0,35.75217 l -10.41039,-0.12931 0,21.52405 -107.24335,-0.067 z"
       id="rect5169-9-2-7"
       inkscape:connector-curvature="0"
       sodipodi:nodetypes="cccccssccccccccccccccccccccccccccccccccccccccccccsscccc" />
    <path
       style="fill:none;fill-rule:evenodd;stroke:#000000;stroke-width:0.70866144;stroke-miterlimit:4;stroke-dasharray:none;image-rendering:optimizeQuality;shape-rendering:geometricPrecision;text-rendering:geometricPrecision"
       d="m 696.62246,-47.397056 a 5.4921241,5.4921241 0 0 1 5.49212,5.492125 5.4921241,5.4921241 0 0 1 -5.49212,5.49212 5.4921241,5.4921241 0 0 1 -5.49212,-5.49212 5.4921241,5.4921241 0 0 1 5.49212,-5.492125 z"
       id="circle5173-9-3-76"
       inkscape:connector-curvature="0" />
    <path
       style="fill:none;fill-rule:evenodd;stroke:#000000;stroke-width:0.70866144;stroke-miterlimit:4;stroke-dasharray:none;image-rendering:optimizeQuality;shape-rendering:geometricPrecision;text-rendering:geometricPrecision"
       d="m 696.62246,15.110869 a 5.4921241,5.4921241 0 0 1 5.49212,5.49213 5.4921241,5.4921241 0 0 1 -5.49212,5.49212 5.4921241,5.4921241 0 0 1 -5.49212,-5.49212 5.4921241,5.4921241 0 0 1 5.49212,-5.49213 z"
       id="circle5173-9-3-7-7"
       inkscape:connector-curvature="0" />
    <path
       style="fill:none;fill-rule:evenodd;stroke:#ff0000;stroke-width:0.70866144;stroke-miterlimit:4;stroke-dasharray:none;image-rendering:optimizeQuality;shape-rendering:geometricPrecision;text-rendering:geometricPrecision"
       d="m 504.20751,28.181609 -0.008,-21.73312 10.62157,0.36215 0,-12.04722 10.6299,0 0,5.66929 10.6299,0 0,-5.66929 7.0866,0 0,-11.33856 -7.0866,0 0,-5.66929 -10.6299,0 0,5.66929 -10.6299,0 0,-12.04722 -10.62157,0.18176 0.008,-21.552728 160.76236,-0.03301 0.13107,-10.538852 76.38043,0 -0.21803,10.538822 161.11913,0.03301 -0.0564,20.917068 -10.68634,-0.0512 0,12.04722 -10.6299,0 0,-5.66929 -10.6299,0 0,5.66929 -7.0866,0 0,11.33856 7.0866,0 0,5.66929 10.6299,0 0,-5.66929 10.6299,0 0,12.04722 10.68634,0.0124 0.0564,21.8637 -161.0063,0.35837 0.1052,10.86419 -76.38043,0 0.0568,-10.86419 z"
       id="rect5169-9-5-9-3"
       inkscape:connector-curvature="0"
       sodipodi:nodetypes="ccccccccccccccccccccccccccccccccccccccccccccc" />
  </g>
</svg>
